<svg width="32" height="31" viewBox="0 0 32 31" fill="none" xmlns="http://www.w3.org/2000/svg">
<g filter="url(#filter0_d_0_514)">
<path d="M16.001 0.5C16.0237 0.500032 16.0462 0.502397 16.0684 0.506836L16.1328 0.526367C16.1538 0.535064 16.1736 0.546031 16.1924 0.558594L16.2451 0.601562L27.1494 11.498C27.5869 11.9355 27.6145 12.6274 27.2334 13.0967L27.1514 13.1875V13.1885C26.9287 13.413 26.625 13.5381 26.3066 13.5381H24.6582V21.8135C24.6582 22.0059 24.503 22.1611 24.3105 22.1611H17.7715V16.2305H13.8066V22.1611H7.69043C7.49799 22.1611 7.34375 22.0059 7.34375 21.8135V13.5381H5.69434C5.03596 13.5381 4.5 13.0021 4.5 12.3438C4.50005 12.0668 4.59688 11.7989 4.77148 11.5859L4.85156 11.498L15.7559 0.601562C15.7719 0.5855 15.7898 0.571157 15.8086 0.558594L15.8682 0.526367C15.9101 0.508972 15.9556 0.5 16.001 0.5Z" stroke="#217AC0" shape-rendering="crispEdges"/>
</g>
<defs>
<filter id="filter0_d_0_514" x="0" y="0" width="32" height="30.6608" filterUnits="userSpaceOnUse" color-interpolation-filters="sRGB">
<feFlood flood-opacity="0" result="BackgroundImageFix"/>
<feColorMatrix in="SourceAlpha" type="matrix" values="0 0 0 0 0 0 0 0 0 0 0 0 0 0 0 0 0 0 127 0" result="hardAlpha"/>
<feOffset dy="4"/>
<feGaussianBlur stdDeviation="2"/>
<feComposite in2="hardAlpha" operator="out"/>
<feColorMatrix type="matrix" values="0 0 0 0 0 0 0 0 0 0 0 0 0 0 0 0 0 0 0.25 0"/>
<feBlend mode="normal" in2="BackgroundImageFix" result="effect1_dropShadow_0_514"/>
<feBlend mode="normal" in="SourceGraphic" in2="effect1_dropShadow_0_514" result="shape"/>
</filter>
</defs>
</svg>
